<svg xmlns="http://www.w3.org/2000/svg" viewBox="0 0 100 100" stroke-linecap="round" stroke-linejoin="round"> <path fill="none" stroke="#fff" stroke-width="3" d="M35.8 87c0 .4.3.6.6.6h27c.4 0 .6-.3.6-.6V47c0-.4 0-.7.4-1l2.7-3.8H36V87zm14.4-39.2v25.8h8.3-17M50 42.2v-3M34.6 52.5c-4.3 0-7.7 5-7.7 11.5 0 6.4 3.3 11.6 7.6 11.6m2-41.4C37.2 26 43 22 50.3 22c7 0 13 4 13.4 12.2h-27z"></path> <path stroke="none" fill="#fff" d="M47.6 15c0 1.4 1 2.6 2.6 2.6 1.4 0 2.5-1.2 2.5-2.6 0-1.5-1-2.6-2.5-2.6s-2.6 1-2.6 2.6"></path> </svg>