<svg xmlns="http://www.w3.org/2000/svg" viewBox="0 0 100 100" stroke-linecap="round" stroke-linejoin="round" fill="none" stroke="#fff" stroke-width="3"> <path d="M33.8 20.5c-6.4 0-11.58 5.18-11.58 11.57 0 1.28 1.04 2.32 2.3 2.32h50.95c1.27 0 2.3-1.05 2.3-2.32 0-6.4-5.17-11.58-11.57-11.58H33.8zM40.74 34.4v3.7c0 1.27 1.04 2.3 2.31 2.3h13.9c1.27 0 2.3-1.03 2.3-2.3v-3.7M66.2 81.5c6.4 0 11.58-5.18 11.58-11.57 0-1.28-1.04-2.32-2.3-2.32H24.53c-1.28 0-2.32 1.05-2.32 2.33 0 6.4 5.18 11.57 11.58 11.57h32.4zM59.26 67.38V60.9c0-1.28-1.04-2.32-2.31-2.32h-13.9c-1.27 0-2.3 1.04-2.3 2.32v6.48M27.78 34.4v33.2M72.22 34.4v33.2M46.93 40.69v5.77M53.07 40.69v5.77"></path> </svg>