<svg xmlns="http://www.w3.org/2000/svg" viewBox="0 0 100 100" stroke-linecap="round" stroke-linejoin="round" fill="none" stroke="#fff" stroke-width="3"> <path d="M26 84h42l-9-36H35.6L26 84zm63.3-46S75 38 75.8 55c.7 16.8-11 15.7-11 15.7m-20.2-34c-.4-.7-1-2-.6-3.2.3-.8 1-1.6 3-1.6s2.8.8 3 1.6c.6 1.2 0 2.5-.5 3.3M35.7 43h22.7c0-3.2-2-5.8-5-5.8H40.7c-3.2 0-5 2.6-5 5.8zM30 68.8s4.7-17.2-8.5-22.8M11 55c-.6 1.2 0 2.7 1.3 3.2 1.3.6 2.7 0 3.3-1.3l5.6-13.4c.5-1.2 0-2.7-1.4-3.3-1.3-.5-2.8 0-3.3 1.4L11 55z"></path> </svg>