<svg width="1908" height="2084" viewBox="0 0 1908 2084" fill="none" xmlns="http://www.w3.org/2000/svg">
<mask id="path-1-outside-1" maskUnits="userSpaceOnUse" x="0" y="0" width="1908" height="2084" fill="black">
<rect fill="white" width="1908" height="2084"/>
<path d="M10.494 10.9232C10.4968 9.26889 11.8382 7.92916 13.4925 7.92834L1897.99 7.00148C1899.65 7.00066 1901 8.34626 1901 10.0051L1898.5 2073.77C1898.5 2075.43 1897.16 2076.77 1895.5 2076.77L10.0055 2077C8.3465 2077 7.00228 2075.65 7.00508 2073.99L10.494 10.9232Z"/>
</mask>
<path d="M10.0055 2077L10.0063 2084L10.0055 2077ZM1898.5 2073.77L1905.5 2073.78L1898.5 2073.77ZM1895.5 2076.77L1895.51 2083.77L1895.5 2076.77ZM1901 10.0051L1908 10.0136L1901 10.0051ZM10.494 10.9232L3.49402 10.9114L10.494 10.9232ZM13.496 14.9283L1898 14.0015L1897.99 0.00147867L13.4891 0.928343L13.496 14.9283ZM1894 9.99665L1891.5 2073.76L1905.5 2073.78L1908 10.0136L1894 9.99665ZM1895.5 2069.77L10.0046 2070L10.0063 2084L1895.51 2083.77L1895.5 2069.77ZM14.0051 2074.01L17.494 10.935L3.49402 10.9114L0.00509262 2073.98L14.0051 2074.01ZM10.0046 2070C12.2165 2070 14.0088 2071.79 14.0051 2074.01L0.00509262 2073.98C-0.00425959 2079.51 4.47652 2084 10.0063 2084L10.0046 2070ZM1891.5 2073.76C1891.51 2071.56 1893.3 2069.77 1895.5 2069.77L1895.51 2083.77C1901.02 2083.77 1905.5 2079.3 1905.5 2073.78L1891.5 2073.76ZM1898 14.0015C1895.79 14.0026 1893.99 12.2085 1894 9.99665L1908 10.0136C1908 4.48398 1903.52 -0.00124073 1897.99 0.00147867L1898 14.0015ZM13.4891 0.928343C7.97501 0.931055 3.50335 5.39679 3.49402 10.9114L17.494 10.935C17.4903 13.141 15.7015 14.9273 13.496 14.9283L13.4891 0.928343Z" fill="white" mask="url(#path-1-outside-1)"/>
</svg>
